<svg width="29" height="29" viewBox="0 0 29 29" fill="none" xmlns="http://www.w3.org/2000/svg">
<path d="M21.605 13.0498C21.605 12.6148 21.75 12.1798 21.75 11.5998C21.75 8.4098 19.14 5.7998 15.95 5.7998C13.63 5.7998 11.745 7.1048 10.73 8.9898C10.44 8.8448 9.86001 8.6998 9.42501 8.6998C7.39501 8.6998 5.80001 10.2948 5.80001 12.3248C5.80001 12.6148 5.80001 12.9048 5.94501 13.0498C3.33501 13.4848 1.45001 15.5148 1.45001 18.1248C1.45001 20.8798 3.77001 23.1998 6.52501 23.1998H21.025C23.78 23.1998 26.1 20.8798 26.1 18.1248C26.1 15.5148 24.215 13.3398 21.605 13.0498Z" fill="white"/>
</svg>
