<svg width="14" height="4" viewBox="0 0 14 4" fill="none" xmlns="http://www.w3.org/2000/svg">
<path d="M1.60001 0.000172853C2.48367 0.000172853 3.20002 0.716522 3.20002 1.60018C3.20002 2.48385 2.48367 3.2002 1.60001 3.2002C0.716349 3.2002 0 2.48385 0 1.60018C0 0.716522 0.716349 0.000172853 1.60001 0.000172853Z" fill="#454545"/>
<path d="M7.0004 0.000172853C7.88406 0.000172853 8.60041 0.716522 8.60041 1.60018C8.60041 2.48385 7.88406 3.2002 7.0004 3.2002C6.11674 3.2002 5.40039 2.48385 5.40039 1.60018C5.40039 0.716522 6.11674 0.000172853 7.0004 0.000172853Z" fill="#454545"/>
<path d="M12.3998 0.000172853C13.2835 0.000172853 13.9998 0.716522 13.9998 1.60018C13.9998 2.48385 13.2835 3.2002 12.3998 3.2002C11.5162 3.2002 10.7998 2.48385 10.7998 1.60018C10.7998 0.716522 11.5162 0.000172853 12.3998 0.000172853Z" fill="#454545"/>
</svg>
