<svg width="18" height="18" viewBox="0 0 18 18" fill="none" xmlns="http://www.w3.org/2000/svg">
<path d="M0 18V4.5C0 4.2613 0.0948211 4.03239 0.263604 3.8636C0.432387 3.69482 0.661305 3.6 0.9 3.6H4.5V0H13.5V3.6H17.1C17.3387 3.6 17.5676 3.69482 17.7364 3.8636C17.9052 4.03239 18 4.2613 18 4.5V18H10.8V13.5H7.2V18H0ZM6.3 1.8V7.2H8.1V5.4H9.9V7.2H11.7V1.8H9.9V3.6H8.1V1.8H6.3ZM1.8 16.2H5.4V13.5H1.8V16.2ZM1.8 11.7H5.4V9H1.8V11.7ZM12.6 16.2H16.2V13.5H12.6V16.2ZM12.6 11.7H16.2V9H12.6V11.7ZM7.2 11.7H10.8V9H7.2V11.7Z" fill="#147ADE"/>
</svg>
