<svg width="18" height="18" viewBox="0 0 18 18" fill="none" xmlns="http://www.w3.org/2000/svg">
<path d="M13.1525 9.054L12.1808 8.1L7.7075 12.492L5.76417 10.584L4.7925 11.538L7.7075 14.4L13.1525 9.054ZM15.4167 1.8H14.5V0H12.6667V1.8H5.33333V0H3.5V1.8H2.58333C1.56583 1.8 0.759167 2.61 0.759167 3.6L0.75 16.2C0.75 16.6774 0.943154 17.1352 1.28697 17.4728C1.63079 17.8104 2.0971 18 2.58333 18H15.4167C16.425 18 17.25 17.19 17.25 16.2V3.6C17.25 2.61 16.425 1.8 15.4167 1.8ZM15.4167 16.2H2.58333V6.3H15.4167V16.2Z" fill="#147ADE"/>
</svg>
