<svg width="16" height="15" viewBox="0 0 16 15" fill="none" xmlns="http://www.w3.org/2000/svg">
<path d="M15.3633 13.7019L10.8892 9.22716C11.6103 8.23635 11.9981 7.04222 11.9969 5.81683C11.9969 2.6095 9.38744 0 6.18011 0C2.97278 0 0.363281 2.6095 0.363281 5.81683C0.363281 9.02416 2.97278 11.6337 6.18011 11.6337C7.4055 11.6348 8.59963 11.247 9.59044 10.526L14.0652 15L15.3633 13.7019ZM6.18011 9.79651C5.3929 9.79659 4.62335 9.56321 3.96878 9.12591C3.31421 8.6886 2.80402 8.06701 2.50273 7.33973C2.20145 6.61246 2.1226 5.81217 2.27616 5.04009C2.42972 4.268 2.80879 3.55879 3.36543 3.00215C3.92207 2.44551 4.63128 2.06644 5.40337 1.91288C6.17545 1.75932 6.97574 1.83817 7.70301 2.13945C8.43029 2.44074 9.05188 2.95092 9.48919 3.6055C9.92649 4.26007 10.1599 5.02962 10.1598 5.81683C10.1586 6.87192 9.73887 7.88345 8.9928 8.62952C8.24673 9.37559 7.23521 9.79527 6.18011 9.79651Z" fill="#E6E6E6"/>
</svg>
