<svg width="20" height="20" viewBox="0 0 20 20" fill="none" xmlns="http://www.w3.org/2000/svg">
<path d="M10 0C12.7635 0 15.121 0.978091 17.0726 2.93427C19.0242 4.89045 20 7.2457 20 10C20 12.7543 19.0242 15.1095 17.0726 17.0657C15.121 19.0219 12.7635 20 10 20C7.23653 20 4.879 19.0219 2.9274 17.0657C0.9758 15.1095 0 12.7543 0 10C0 7.2457 0.9758 4.89045 2.9274 2.93427C4.879 0.978091 7.23653 0 10 0ZM16.9087 6.00939C15.9094 4.25665 14.4731 3.06729 12.5995 2.44131C13.1928 3.53678 13.6456 4.72613 13.9578 6.00939H16.9087ZM9.97658 2.01878C9.13349 3.23944 8.50898 4.56964 8.10304 6.00939H11.897C11.4598 4.56964 10.8197 3.23944 9.97658 2.01878ZM2.24824 12.0188H5.62061C5.52693 11.2363 5.48009 10.5634 5.48009 10C5.48009 9.43662 5.52693 8.76369 5.62061 7.98122H2.24824C2.09212 8.7011 2.01405 9.37402 2.01405 10C2.01405 10.626 2.09212 11.2989 2.24824 12.0188ZM3.09133 13.9906C4.09055 15.7433 5.52693 16.9327 7.40047 17.5587C6.80718 16.4632 6.35441 15.2739 6.04215 13.9906H3.09133ZM6.04215 6.00939C6.35441 4.72613 6.80718 3.53678 7.40047 2.44131C5.52693 3.06729 4.09055 4.25665 3.09133 6.00939H6.04215ZM9.97658 17.9812C10.8197 16.7606 11.4598 15.4304 11.897 13.9906H8.10304C8.50898 15.4304 9.13349 16.7606 9.97658 17.9812ZM12.3185 12.0188C12.4434 11.2363 12.5059 10.5634 12.5059 10C12.5059 9.43662 12.4434 8.76369 12.3185 7.98122H7.63466C7.54098 8.76369 7.49414 9.43662 7.49414 10C7.49414 10.5634 7.54098 11.2363 7.63466 12.0188H12.3185ZM12.5995 17.5587C14.4731 16.9327 15.9094 15.7433 16.9087 13.9906H13.9578C13.6456 15.2739 13.1928 16.4632 12.5995 17.5587ZM14.3326 12.0188H17.7049C17.8923 11.2989 17.9859 10.626 17.9859 10C17.9859 9.37402 17.8923 8.7011 17.7049 7.98122H14.3326C14.4262 8.76369 14.4731 9.43662 14.4731 10C14.4731 10.5634 14.4262 11.2363 14.3326 12.0188Z" fill="#147ADE"/>
</svg>
