<svg width="20" height="20" viewBox="0 0 20 20" fill="none" xmlns="http://www.w3.org/2000/svg">
<path fill-rule="evenodd" clip-rule="evenodd" d="M10 4.28571C8.81429 4.28571 7.85714 3.32857 7.85714 2.14286C7.85714 0.957143 8.81429 0 10 0C11.1857 0 12.1429 0.957143 12.1429 2.14286C12.1429 3.32857 11.1857 4.28571 10 4.28571ZM20 12.8571C20 14.4429 18.7286 15.7143 17.1429 15.7143H15.7143C14.1286 15.7143 12.8571 14.4429 12.8571 12.8571L15.7143 7.14286H14.2857C13.5 7.14286 12.8571 6.5 12.8571 5.71429H11.4286V17.1429C12.0286 17.1429 12.8571 17.7857 12.8571 18.5714H14.2857C14.8857 18.5714 15.7143 19.2143 15.7143 20H4.28571C4.28571 19.2143 5.11429 18.5714 5.71429 18.5714H7.14286C7.14286 17.7857 7.97143 17.1429 8.57143 17.1429H8.61429L8.57143 5.71429H7.14286C7.14286 6.5 6.5 7.14286 5.71429 7.14286H4.28571L7.14286 12.8571C7.14286 14.4429 5.87143 15.7143 4.28571 15.7143H2.85714C1.27143 15.7143 0 14.4429 0 12.8571L2.85714 7.14286H1.42857V5.71429H5.71429C5.71429 4.92857 6.35714 4.28571 7.14286 4.28571H12.8571C13.6429 4.28571 14.2857 4.92857 14.2857 5.71429H18.5714V7.14286H17.1429L20 12.8571ZM3.57143 8.57143L1.42857 12.8571H5.71429L3.57143 8.57143ZM18.5714 12.8571L16.4286 8.57143L14.2857 12.8571H18.5714Z" fill="#147ADE"/>
</svg>
