<svg width="20" height="20" viewBox="0 0 20 20" fill="none" xmlns="http://www.w3.org/2000/svg">
<path d="M19.6461 5.48785C20.1647 7.28798 20.0745 9.06588 19.6236 10.466C19.1501 11.8883 18.2031 12.8884 17.0306 13.2217C16.8503 13.2884 16.7375 13.2884 16.5797 13.2884C16.512 13.3106 16.4444 13.3106 16.3768 13.3106C16.3091 13.3329 16.2189 13.3329 16.1287 13.3329H8.4626L10.9654 19.4444C10.9879 19.6 10.8977 19.7333 10.8075 19.8222C10.7174 19.9333 10.537 20 10.4242 20H7.01957C6.90683 20 6.72645 19.9333 6.63626 19.8222C6.54607 19.7333 6.45588 19.6 6.47843 19.4444L5.35106 13.3329H3.97566L3.95311 13.3106C3.38943 13.3773 2.73555 13.1106 2.21696 12.6217C1.69837 12.1328 1.22487 11.4216 1.02194 10.5327C0.751374 9.6437 0.796469 8.7992 0.999396 8.08803C1.20232 7.3991 1.65327 6.88795 2.19441 6.64349L2.21696 6.62126L12.3633 0.620834C12.4761 0.554163 12.5662 0.509715 12.6339 0.443044C12.7015 0.398596 12.7917 0.354148 12.9045 0.309701C13.0848 0.220805 13.2201 0.176358 13.4681 0.109686C14.6406 -0.223671 15.9935 0.220805 17.0983 1.19865C18.2031 2.1765 19.1726 3.68772 19.6461 5.48785ZM16.7375 12.1328H16.715C17.1659 12.0217 17.5492 11.755 17.8874 11.3549C18.5413 10.5771 18.857 9.39924 18.857 7.97692C18.857 7.26575 18.7442 6.53237 18.5413 5.77676C18.158 4.26554 17.3914 2.99878 16.5346 2.1765C15.6778 1.35422 14.6406 0.954191 13.7613 1.19865C12.8368 1.44312 12.1829 2.2654 11.8447 3.42103C11.484 4.57667 11.5291 6.04344 11.9124 7.55466C12.3408 9.06588 13.0397 10.3326 13.9416 11.1549C14.821 11.9772 15.768 12.3772 16.7375 12.1328ZM13.874 4.26554C14.122 4.22109 14.3475 4.24332 14.573 4.30999C15.0014 4.48778 15.4298 4.84336 15.7229 5.42118C16.016 5.999 16.1964 6.75461 16.1964 7.3991C16.1964 7.73245 16.1513 8.02136 16.0611 8.28805C15.8582 8.82142 15.5651 9.22145 15.0916 9.33257C14.7083 9.44369 14.1897 9.2659 13.8064 8.88809C13.423 8.51029 13.0848 7.93247 12.927 7.22131C12.7241 6.53237 12.7917 5.84343 12.9496 5.31006C13.1074 4.77669 13.4907 4.37666 13.874 4.26554Z" fill="#147ADE"/>
</svg>
